ISO-10303-21;
HEADER;
FILE_DESCRIPTION(('Bracket sample'),'2;1');
FILE_NAME('BRK-1042.step','2026-09-19T10:00:00',('Engineering'),('Rama Manufacturing'),'MIP sample writer','MIP','');
FILE_SCHEMA(('AP242_MANAGED_MODEL_BASED_3D_ENGINEERING_MIM_LF'));
ENDSEC;
DATA;
#1=PRODUCT('BRK-1042','Mounting bracket','',(#2));
#2=PRODUCT_CONTEXT('',#3,'mechanical');
#3=APPLICATION_CONTEXT('managed model based 3d engineering');
#10=(LENGTH_UNIT()NAMED_UNIT(*)SI_UNIT(.MILLI.,.METRE.));
#100=CARTESIAN_POINT('',(-50.000000,-30.000000,-20.000000));
#101=CARTESIAN_POINT('',(50.000000,-30.000000,-20.000000));
#102=CARTESIAN_POINT('',(50.000000,30.000000,-20.000000));
#103=CARTESIAN_POINT('',(-50.000000,30.000000,-20.000000));
#104=CARTESIAN_POINT('',(-50.000000,-30.000000,0.000000));
#105=CARTESIAN_POINT('',(50.000000,-30.000000,0.000000));
#106=CARTESIAN_POINT('',(50.000000,30.000000,0.000000));
#107=CARTESIAN_POINT('',(-50.000000,30.000000,0.000000));
#108=CARTESIAN_POINT('',(-30.000000,-20.000000,0.000000));
#109=CARTESIAN_POINT('',(30.000000,-20.000000,0.000000));
#110=CARTESIAN_POINT('',(30.000000,20.000000,0.000000));
#111=CARTESIAN_POINT('',(-30.000000,20.000000,0.000000));
#112=CARTESIAN_POINT('',(0.000000,0.000000,-8.000000));
#113=CARTESIAN_POINT('',(40.000000,20.000000,0.000000));
#114=CARTESIAN_POINT('',(-40.000000,20.000000,0.000000));
#115=CARTESIAN_POINT('',(-40.000000,-20.000000,0.000000));
#116=CARTESIAN_POINT('',(40.000000,-20.000000,0.000000));
#117=DIRECTION('',(0.0,0.0,1.0));
#118=CARTESIAN_POINT('',(40.000000,20.000000,0.0));
#119=AXIS2_PLACEMENT_3D('',#118,#117);
#120=CYLINDRICAL_SURFACE('hole_1',#119,4.100000);
#121=CIRCLE('hole_edge_1',#119,4.100000);
#122=CARTESIAN_POINT('',(-40.000000,20.000000,0.0));
#123=AXIS2_PLACEMENT_3D('',#122,#117);
#124=CYLINDRICAL_SURFACE('hole_2',#123,4.100000);
#125=CIRCLE('hole_edge_2',#123,4.100000);
#126=CARTESIAN_POINT('',(-40.000000,-20.000000,0.0));
#127=AXIS2_PLACEMENT_3D('',#126,#117);
#128=CYLINDRICAL_SURFACE('hole_3',#127,4.100000);
#129=CIRCLE('hole_edge_3',#127,4.100000);
#130=CARTESIAN_POINT('',(40.000000,-20.000000,0.0));
#131=AXIS2_PLACEMENT_3D('',#130,#117);
#132=CYLINDRICAL_SURFACE('hole_4',#131,4.100000);
#133=CIRCLE('hole_edge_4',#131,4.100000);
#900=PLANE('top',#1);
#901=ADVANCED_FACE('',(),#900,.T.);
#902=CLOSED_SHELL('',(#901));
#903=MANIFOLD_SOLID_BREP('BRK-1042',#902);
ENDSEC;
END-ISO-10303-21;